<svg width="184" height="48" viewBox="0 0 184 48" fill="none" xmlns="http://www.w3.org/2000/svg">
<g opacity="0.84">
<path d="M36.9121 9.00117C35.3955 8.97201 33.8001 9.71889 32.6234 10.8704C31.8713 11.6062 30.8754 12.0307 29.9731 12.0307C29.0703 12.0307 28.3736 11.5887 28.0968 10.8547C27.6739 9.73405 26.602 9 25.1185 9C23.6349 9 22.0848 9.73347 20.9317 10.8547C20.1772 11.5881 19.1919 12.0307 18.2891 12.0307C17.3868 12.0307 16.6671 11.6062 16.3944 10.8704C15.9674 9.71889 14.8591 8.97201 13.3237 9.00117C10.9396 9.04664 8.39009 10.9911 7.63624 13.3373C6.87238 15.7138 8.19514 17.6366 10.5974 17.6366C11.9879 17.6366 13.4356 16.9924 14.5605 15.9895C15.3844 15.2549 16.4198 14.8339 17.3638 14.8339C18.3085 14.8339 19.0688 15.2555 19.4145 15.9895C19.8863 16.9924 20.9146 17.6366 22.3045 17.6366C23.6944 17.6366 25.1426 16.9924 26.2675 15.9895C27.0914 15.2549 28.1268 14.8339 29.0709 14.8339C30.0155 14.8339 30.7759 15.2555 31.1216 15.9895C31.5933 16.9924 32.6216 17.6366 34.0115 17.6366C36.4144 17.6366 38.9893 15.7132 39.7738 13.3373C40.5494 10.9917 39.2661 9.04664 36.9121 9.00117Z" fill="white"/>
<path d="M29.7913 29.1518C30.4833 27.0278 32.6035 25.2611 34.7614 24.8927C35.2478 24.8093 35.7096 24.4099 35.8603 23.9475L37.0594 20.2662C37.2326 19.7345 36.9375 19.3036 36.401 19.3036H7.12396C6.58685 19.3036 6.01145 19.7345 5.8383 20.2662L4.63921 23.9475C4.48844 24.4099 4.68986 24.8099 5.12214 24.8927C7.03975 25.2611 8.00915 27.0278 7.31714 29.1518C6.62513 31.2758 4.50493 33.0425 2.34704 33.4109C1.86057 33.4943 1.39884 33.8937 1.24807 34.3561L0.0495639 38.0374C-0.123586 38.5691 0.171475 39 0.708004 39H29.9844C30.5215 39 31.0969 38.5691 31.2701 38.0374L32.4692 34.3561C32.62 33.8937 32.4185 33.4937 31.9863 33.4109C30.0687 33.0425 29.0992 31.2758 29.7913 29.1518Z" fill="white"/>
</g>
<g opacity="0.84">
<path d="M54.7312 38.423C54.7312 38.5563 54.6147 38.6644 54.471 38.6644H50.2602C50.1165 38.6644 50 38.5563 50 38.423V20.577C50 20.4437 50.1165 20.3356 50.2602 20.3356H54.471C54.6147 20.3356 54.7312 20.4437 54.7312 20.577V38.423Z" fill="white"/>
<path d="M61.7334 38.423C61.7334 38.5563 61.6168 38.6644 61.4731 38.6644H57.5129C57.3691 38.6644 57.2526 38.5563 57.2526 38.423V20.577C57.2526 20.4437 57.3691 20.3356 57.5129 20.3356H62.5842C62.6776 20.3356 62.7639 20.382 62.8102 20.4573L69.9786 32.0997C70.0448 32.2072 70.2217 32.1637 70.2217 32.0399V20.577C70.2217 20.4437 70.3382 20.3356 70.482 20.3356H74.3866C74.5303 20.3356 74.6468 20.4437 74.6468 20.577V38.423C74.6468 38.5563 74.5303 38.6644 74.3866 38.6644H69.5943C69.5005 38.6644 69.4139 38.6176 69.3677 38.5418L61.9768 26.4143C61.9109 26.3063 61.7334 26.3496 61.7334 26.4737V38.423Z" fill="white"/>
<path d="M85.8635 39C80.3252 39 76.8464 35.1793 76.8464 29.7582V29.2418C76.8464 23.8465 80.6592 20 86.6149 20C91.4726 20 94.5838 22.6018 95.2775 26.178C95.3056 26.3229 95.1837 26.4538 95.025 26.4538H90.7979C90.6785 26.4538 90.575 26.3781 90.5418 26.2717C90.0269 24.622 88.7067 23.5883 86.5314 23.5883C83.3866 23.5883 81.7167 25.8601 81.7167 29.2418V29.7582C81.7167 33.1658 83.4701 35.4117 86.7262 35.4117C89.7385 35.4117 91.2188 33.8249 91.4605 31.8989C91.4779 31.7605 91.3583 31.6427 91.2081 31.6427H86.5412C86.3975 31.6427 86.281 31.5346 86.281 31.4013V28.6313C86.281 28.498 86.3975 28.3899 86.5412 28.3899H95.1492C95.2929 28.3899 95.4094 28.498 95.4094 28.6313V38.423C95.4094 38.5563 95.2929 38.6644 95.1492 38.6644H92.237C92.1087 38.6644 91.9995 38.5777 91.9798 38.4601L91.6808 36.6769C91.6619 36.5646 91.4973 36.5342 91.4275 36.6276C90.3824 38.025 88.3674 39 85.8635 39Z" fill="white"/>
<path d="M102.32 38.423C102.32 38.5563 102.203 38.6644 102.06 38.6644H97.9325C97.7887 38.6644 97.6722 38.5563 97.6722 38.423V20.577C97.6722 20.4437 97.7887 20.3356 97.9325 20.3356H106.634C110.836 20.3356 113.981 22.4008 113.981 26.2731V26.5313C113.981 29.2612 112.46 31.0753 110.071 31.9253C109.993 31.9531 109.961 32.0406 110.006 32.1059L114.307 38.2922C114.418 38.4528 114.294 38.6644 114.088 38.6644H109.562C109.472 38.6644 109.388 38.621 109.341 38.5497L105.374 32.5834C105.327 32.5122 105.243 32.4688 105.153 32.4688H102.58C102.436 32.4688 102.32 32.5768 102.32 32.7101V38.423ZM102.58 23.8723C102.436 23.8723 102.32 23.9804 102.32 24.1137V28.6907C102.32 28.824 102.436 28.9321 102.58 28.9321H106.133C107.914 28.9321 109.138 28.2092 109.138 26.5313V26.2731C109.138 24.5951 107.914 23.8723 106.133 23.8723H102.58Z" fill="white"/>
<path d="M131.162 38.423C131.162 38.5563 131.046 38.6644 130.902 38.6644H116.616C116.473 38.6644 116.356 38.5563 116.356 38.423V20.577C116.356 20.4437 116.473 20.3356 116.616 20.3356H130.679C130.823 20.3356 130.939 20.4437 130.939 20.577V23.6309C130.939 23.7642 130.823 23.8723 130.679 23.8723H121.236C121.092 23.8723 120.976 23.9804 120.976 24.1137V27.3741C120.976 27.5074 121.092 27.6155 121.236 27.6155H129.649C129.793 27.6155 129.91 27.7236 129.91 27.8569V30.8075C129.91 30.9408 129.793 31.0489 129.649 31.0489H121.236C121.092 31.0489 120.976 31.157 120.976 31.2903V34.8863C120.976 35.0196 121.092 35.1277 121.236 35.1277H130.902C131.046 35.1277 131.162 35.2358 131.162 35.3691V38.423Z" fill="white"/>
<path d="M141.097 39C135.98 39 132.859 36.7281 132.464 32.933C132.45 32.7941 132.569 32.6753 132.719 32.6753H136.862C136.992 32.6753 137.101 32.7653 137.125 32.8843C137.479 34.682 138.956 35.5924 141.208 35.5924C143.296 35.5924 144.52 34.8696 144.52 33.6304V33.5272C144.52 32.288 143.63 31.7459 139.9 31.1264C135.141 30.3261 133.11 28.6739 133.11 25.6535V25.4728C133.11 22.1168 136.338 20 140.791 20C145.305 20 148.384 21.9964 148.835 25.6762C148.852 25.8163 148.732 25.9375 148.58 25.9375H144.449C144.315 25.9375 144.204 25.8435 144.183 25.7214C143.911 24.139 142.679 23.3818 140.707 23.3818C138.704 23.3818 137.757 24.2079 137.757 25.2921V25.3696C137.757 26.428 138.314 27.0217 142.071 27.5897C146.608 28.2867 149.196 29.8614 149.196 33.0367V33.2432C149.196 36.8057 145.8 39 141.097 39Z" fill="white"/>
<path d="M159.101 39C153.984 39 150.863 36.7281 150.469 32.933C150.454 32.7941 150.573 32.6753 150.724 32.6753H154.866C154.996 32.6753 155.106 32.7653 155.129 32.8843C155.483 34.682 156.961 35.5924 159.213 35.5924C161.3 35.5924 162.525 34.8696 162.525 33.6304V33.5272C162.525 32.288 161.634 31.7459 157.905 31.1264C153.146 30.3261 151.114 28.6739 151.114 25.6535V25.4728C151.114 22.1168 154.342 20 158.795 20C163.309 20 166.389 21.9964 166.839 25.6762C166.856 25.8163 166.736 25.9375 166.584 25.9375H162.453C162.32 25.9375 162.209 25.8435 162.188 25.7214C161.916 24.139 160.684 23.3818 158.712 23.3818C156.708 23.3818 155.762 24.2079 155.762 25.2921V25.3696C155.762 26.428 156.318 27.0217 160.076 27.5897C164.612 28.2867 167.2 29.8614 167.2 33.0367V33.2432C167.2 36.8057 163.805 39 159.101 39Z" fill="white"/>
<path d="M184 38.423C184 38.5563 183.883 38.6644 183.74 38.6644H169.454C169.311 38.6644 169.194 38.5563 169.194 38.423V20.577C169.194 20.4437 169.311 20.3356 169.454 20.3356H183.517C183.661 20.3356 183.777 20.4437 183.777 20.577V23.6309C183.777 23.7642 183.661 23.8723 183.517 23.8723H174.074C173.93 23.8723 173.814 23.9804 173.814 24.1137V27.3741C173.814 27.5074 173.93 27.6155 174.074 27.6155H182.487C182.631 27.6155 182.748 27.7236 182.748 27.8569V30.8075C182.748 30.9408 182.631 31.0489 182.487 31.0489H174.074C173.93 31.0489 173.814 31.157 173.814 31.2903V34.8863C173.814 35.0196 173.93 35.1277 174.074 35.1277H183.74C183.883 35.1277 184 35.2358 184 35.3691V38.423Z" fill="white"/>
</g>
</svg>
